<svg width="36" height="36" fill="none" xmlns="http://www.w3.org/2000/svg"><path d="M31.5 24.074v4.05a3.376 3.376 0 0 1-3.375 3.375h-9.639c-1.201 0-1.795-1.445-.958-2.295l7.924-8.1c.256-.256.607-.405.958-.405h1.715a3.376 3.376 0 0 1 3.375 3.375Zm-4.9-7.034-3.66 3.658-3.32 3.308c-.85.85-2.309.256-2.309-.945V11.6c0-.365.149-.702.392-.959L18.945 9.4a3.373 3.373 0 0 1 4.779 0l2.862 2.862a3.361 3.361 0 0 1 .013 4.779ZM11.925 4.5h-4.05C5.85 4.5 4.5 5.85 4.5 7.875v18.224c0 .364.04.729.108 1.08.04.176.081.351.135.527.067.202.135.404.216.593a.042.042 0 0 1 .013.027c.014 0 .014 0 0 .014.19.378.405.742.662 1.08.148.175.297.337.445.5.149.161.31.296.486.431l.014.014c.337.256.702.472 1.08.661.013-.013.013-.013.013 0 .203.095.405.162.621.23.176.054.351.094.527.135.35.067.715.108 1.08.108a5.24 5.24 0 0 0 1.647-.257c.148-.054.297-.108.445-.175a4.724 4.724 0 0 0 1.337-.81c.121-.095.256-.216.378-.338l.054-.054A5.41 5.41 0 0 0 15.3 26.1V7.875c0-2.025-1.35-3.375-3.375-3.375ZM9.9 28.124a2.022 2.022 0 0 1-2.025-2.025c0-1.12.904-2.025 2.025-2.025 1.12 0 2.025.905 2.025 2.025 0 1.12-.905 2.025-2.025 2.025Z" fill="#6F9D80"/></svg>