<svg width="36" height="36" fill="none" xmlns="http://www.w3.org/2000/svg"><path d="M9.912 22.934c.645 1.428 1.659 2.626 2.672 3.778 1.163 1.014 2.512 1.603 3.954 1.853.436.117.867.158 1.285.134a12.14 12.14 0 0 0 2.593-.19c1.613-.553 3.087-1.567 4.008-2.995.784-1.198 1.152-2.672 1.337-4.1.138-1.29.184-2.626-.047-3.916-.23-1.29-.69-2.304-1.52-3.318.23.876.092 1.797-.184 2.673-.231.73-.59 1.398-.945 2.054l-.207.387c-.046-1.52-.783-2.902-1.566-4.238a68.944 68.944 0 0 0-.413-.692c-.66-1.097-1.318-2.19-1.66-3.408-.415-1.475-.277-3.225.783-4.331-2.12.783-4.147 1.935-5.621 3.686-1.474 1.75-2.211 4.146-1.75 6.357-.784-.875-1.198-2.073-1.106-3.225a10.632 10.632 0 0 0-2.12 4.561 8.565 8.565 0 0 0 .507 4.93Z" fill="#6F9D80"/><path fill="#6F9D80" stroke="#EEF1F7" stroke-width="1.269" d="m28.423 5.432 2.135 2.135L7.569 30.556 5.434 28.42z"/><circle cx="18" cy="18" r="14.75" stroke="#6F9D80" stroke-width="2"/></svg>