<svg width="124" height="124" fill="none" xmlns="http://www.w3.org/2000/svg"><path d="m35.919 6.607-.208.519 3.94 2.492 1.245 2.492 4.148 3.945-.103 3.323-2.282 6.541-5.185 3.738-4.667.934-.933 5.4 1.556.726-1.556 10.591-3.837 2.388.726 4.05-.933.415-.83 4.568 3.319 9.241 11.822 9.968 1.037 4.776 2.281 2.388 7.467-.415-1.348 6.956-.519 7.476 4.46 3.634 7.051 3.115 3.734 2.907 2.074 5.919-1.141 2.18 7.363 6.022.311.104-.622-.623 2.074-4.88 7.985 2.18 1.97-2.284-1.555-4.568 6.533-3.842-1.763-2.492 1.556-3.53v-.312l-.415-.104.104-9.24 2.281-1.662L97 82.403l-.83-4.05-2.592-4.88 1.452-5.503-7.26-51.188-1.037-1.142-2.696-6.126L81.86 7.23l-.933-6.022V1l-14 1.973-8.4 1.038L35.92 6.607Z" fill="#364D68"/></svg>