<svg width="124" height="124" viewBox="0 0 124 124" fill="none" xmlns="http://www.w3.org/2000/svg">
<path d="M100.845 89.8227C101.757 88.7047 101.606 88.3796 100.116 88.1179C99.6398 88.0307 99.0213 87.8008 99.5209 87.325C100.805 86.1119 100.155 85.1604 99.3147 84.1772C98.8865 83.6777 98.8548 83.3209 99.4654 82.8927C100.044 82.4963 100.615 82.084 100.583 81.1642C100.298 73.5842 99.6715 11.1674 99.5526 3.21471C99.5367 2.21566 99.2116 1.97779 98.276 2.00158C94.3591 2.10465 90.4422 2.18394 86.5253 2.19186C75.9957 2.23151 65.466 2.23944 54.9364 2.23944C54.2148 2.23944 53.5805 2.37423 52.97 2.76275C51.3525 3.79351 49.6716 4.72913 47.8717 5.38723C46.0797 6.04533 44.2482 6.76688 42.2976 6.14049C41.5444 5.90262 40.3233 6.15634 40.3233 4.76877C39.467 4.87978 38.9199 4.30098 38.238 3.66666C38.1983 4.18204 38.1508 4.49127 38.1428 4.8005C38.0239 10.2635 37.8653 15.7266 37.794 21.1897C37.6671 30.4031 37.6116 39.6245 37.3182 48.8379C37.0566 57.0285 37.0883 65.235 37.0011 73.4335C37.0011 74.1471 36.9139 74.6863 36.0734 74.8766C35.558 74.9876 35.1933 75.3761 35.225 75.9866C35.2409 76.1452 35.2646 76.3038 35.2805 76.4624C35.2409 76.8667 35.1536 77.2949 35.5263 77.5883C36.2875 78.1829 35.8593 78.7063 35.4312 79.2058C35.2012 79.4833 34.8761 79.6815 34.6303 79.9432C33.9088 80.7202 33.7106 81.4655 34.7096 82.2109C35.7087 82.9641 36.1289 83.9632 35.8197 85.2239C35.7959 85.3111 35.9069 85.4379 35.9545 85.541C36.2954 85.7947 36.5571 85.993 36.7315 86.1753C36.8425 86.3656 36.9535 86.5876 37.0566 86.8096C37.0883 87.1585 36.9297 87.5946 36.6205 88.3003C36.4619 88.665 36.1765 89.0694 36.4461 89.5214C36.9139 90.227 37.231 91.0279 37.3579 91.8287C37.6354 93.5493 36.8504 94.7307 35.1854 95.2936C35.1299 95.3888 35.0743 95.4839 35.0188 95.5791C34.2973 96.594 33.6233 97.8705 33.6154 98.933C33.5996 100.321 32.8622 100.432 32.0296 100.733C31.6094 100.884 31.1495 101.002 31.4587 101.534C31.9424 102.358 31.538 103.056 31.0147 103.453C29.9285 104.293 29.31 105.308 29.1038 106.632C29.1038 106.656 28.9611 106.656 28.8898 106.664C28.5012 106.529 28.8977 105.879 28.3506 105.839C28.3268 105.839 28.303 105.855 28.2792 105.871C28.0493 105.966 27.8194 106.061 27.5973 106.156C27.0027 105.982 26.8282 106.41 26.6538 106.814C26.5586 107.028 26.5269 107.425 26.408 107.449C25.179 107.694 25.8213 108.448 25.9402 109.05C25.964 109.169 25.9481 109.352 26.0195 109.391C27.3198 110.168 27.304 110.866 25.9085 111.508C25.734 111.588 25.5913 111.738 25.4169 111.818C25.1394 111.944 24.8381 112.079 25.0046 112.42C25.1552 112.721 25.4169 112.476 25.631 112.42C25.8054 112.365 25.9878 112.143 26.1622 112.373C26.3287 112.603 26.2336 112.832 26.0274 113.007C25.845 113.165 25.6468 113.308 25.4565 113.451C25.1076 113.522 24.7112 113.324 24.4178 113.673C24.3861 113.776 24.2989 113.927 24.3385 113.982C25.2424 115.14 24.8301 116.845 23.5218 117.352C23.3474 117.526 23.1809 117.709 23.0065 117.883C22.9034 118.962 24.061 119.318 24.3703 120.024C24.0293 120.65 23.3553 119.588 23.2443 120.373C23.1333 121.166 23.8628 120.849 24.283 120.944C24.624 121.015 25.0284 121.142 25.2424 121.388C26.1622 122.434 26.7252 121.594 27.2247 120.999C27.7321 120.389 27.3436 119.778 26.9313 119.239C26.3684 118.502 27.0423 118.137 27.407 117.701C27.74 117.304 28.1286 117.479 28.3109 117.828C28.9849 119.128 29.9047 119.287 31.1416 118.605C31.4746 118.422 31.9345 118.486 32.3309 118.399C33.0049 118.256 33.1714 118.502 32.9177 119.112C32.7036 119.628 32.5529 120.175 33.1952 120.476C33.7344 120.73 34.2735 120.539 34.6383 120.127C35.0268 119.691 35.3281 119.041 34.8285 118.581C33.8691 117.693 34.3607 117.074 35.0506 116.313C35.1774 116.512 35.2646 116.638 35.336 116.773C36.113 118.153 36.6919 118.319 37.9843 117.439C38.6979 116.956 39.3322 117.098 40.0458 117.447C41.7426 118.296 42.9399 119.976 44.9221 120.357C45.2789 120.428 45.4295 120.857 45.5485 121.213C45.6833 121.602 45.8022 122.03 46.3335 121.998C46.8092 121.967 47.1898 121.745 47.4435 121.332C47.7369 120.833 47.9034 120.286 47.9827 119.723C48.1968 118.303 48.7359 117.725 50.1869 117.487C50.6309 117.415 51.0591 117.384 51.4318 117.059C52.7586 115.927 53.8184 116.139 54.6113 117.693C55.0157 118.486 55.428 119.191 56.427 118.335C56.6094 118.177 56.8552 118.081 57.0692 118.335C56.9424 118.882 56.7045 119.413 56.8235 119.984C56.9503 120.619 57.2437 120.872 57.7987 120.333C58.3696 119.961 58.774 119.532 58.6788 118.747C58.6075 118.216 58.8929 117.986 59.4955 118.002C60.9227 118.034 60.9624 117.939 60.5739 116.622C60.1774 115.267 60.5342 114.648 61.8901 114.125C62.5561 113.871 63.0318 113.411 62.3658 112.658C62.1993 112.468 61.8187 112.333 62.0962 111.984C62.2944 111.73 62.564 111.865 62.7385 112.024C63.1587 112.388 63.46 112.396 63.8247 111.921C64.0626 111.611 64.4987 111.714 64.8634 111.699C65.6246 111.58 65.5453 111.215 65.1489 110.755C65.2361 110.668 65.3233 110.581 65.4105 110.493C65.4898 110.493 65.5612 110.517 65.6246 110.557C65.8149 111.112 66.2669 111.596 66.1558 112.246C66.2034 113.966 67.6385 115.314 69.3591 115.148C70.1917 115.068 70.7546 115.362 71.2224 115.972C71.2938 116.305 71.4286 116.678 71.8092 116.607C72.2373 116.535 71.9995 115.949 72.2928 115.719C74.7112 115.346 74.9808 115.092 75.2028 112.785C75.2504 112.301 75.2028 111.81 75.1869 111.318C75.1631 110.684 75.2424 110.073 75.7182 109.621C76.3208 109.042 76.7568 108.416 76.9471 107.576C77.0978 106.925 77.7163 106.6 78.2713 107.036C78.9294 107.552 79.3813 107.29 79.9205 106.949C80.9195 106.315 81.4508 105.435 81.5539 104.237C81.7045 102.549 82.1882 102.073 83.8216 101.724C85.2567 101.415 85.5976 99.8766 86.6522 99.1312C86.7552 99.0599 86.7711 98.6952 86.6839 98.5445C86.0337 97.4107 86.3985 96.0627 85.8751 94.8892C85.5025 94.0488 86.0496 93.3272 86.9456 93.3748C87.6909 93.4224 88.4045 93.3827 89.126 93.2004C89.7128 93.0497 90.2202 93.2004 90.6722 93.6761C91.917 95.0082 92.3452 95.0003 93.8041 93.803C95.6357 92.2965 97.6814 91.3767 100.116 91.6384C100.726 91.7018 101.035 91.5194 100.702 90.901C100.464 90.4728 100.512 90.1874 100.813 89.8147L100.845 89.8227ZM37.3737 87.9911C37.3182 88.0149 37.2627 88.0386 37.2152 88.0624C37.2865 87.9039 37.3341 87.7373 37.3658 87.555C37.4293 87.7928 37.453 87.9673 37.3817 87.9911H37.3737Z" fill="#364D68"/>
</svg>
