<svg width="124" height="124" fill="none" xmlns="http://www.w3.org/2000/svg"><g clip-path="url(#a)"><path d="M112.701 45.249 106 41.719l-3.655-4.99-1.218-7.182.974-3.287L98.568 22l-5.97.609-59.945 4.99L8.65 28.94l-6.092.364L0 29.425l2.071 13.511-1.705 6.452 2.68 4.016v.852l.853.122L7.798 65.82l3.777 5.964.244 6.817 4.142 5.72-.731 2.435 3.777 15.337v.365l24.977-.73 26.683-2.313 26.195-3.286 5.97 5.234.244.243 1.097-.487-.853-4.747 4.508-2.8 1.827-12.415-1.827-.852 1.096-6.33 5.483-1.095 6.092-4.382 2.681-7.669.121-3.895-4.873-4.625-1.462-2.921-4.63-2.922.244-.608.121-.61Z" fill="#364D68"/></g><defs><clipPath id="a"><path fill="#fff" d="M0 0h124v124H0z"/></clipPath></defs></svg>