<svg width="253" height="66" fill="none" xmlns="http://www.w3.org/2000/svg"><path d="m95.448.941 14.229 34.403L123.792.94h4.705l-16.524 39.077h-4.705L90.801.94h4.647Zm51.776 0 17.27 39.077h-4.705l-4.36-9.457h-21.172l-4.361 9.457h-4.705L142.519.94h4.705Zm6.713 25.644-9.066-20.976-9.122 20.976h18.188ZM174.992.941l15.657 28.275L206.364.941h4.59v39.077h-4.36V8.087l-15.307 27.462h-1.218L174.763 8.087v31.93h-4.361V.942h4.59Zm47.608 0h14.975c10.041 0 15.319 5.187 15.319 14.176v.058c0 9.047-5.278 12.633-15.319 12.633h-10.557v12.21H222.6V.94Zm25.876 14.234v-.058c0-6.454-3.672-9.969-10.901-9.969h-10.557v18.453h10.557c7.229 0 10.901-1.914 10.901-8.426ZM40.641 64.83h14.344l-15.88-22.484c8.791-3.053 13.51-9.808 13.51-19.615v-.093c0-13.601-9.16-21.836-25.539-21.836H.796v8.003l12.102 16.712v-12.41h16.188c7.31 0 12.225 2.777 12.225 9.531v.092c0 6.94-5.313 9.623-12.623 9.623h-10.84l8.45 11.668L40.64 64.83ZM58.97.941h29.472v7.953h-20.98v8.067h18.8v7.152h-18.8v8.753h21.777v7.152h-30.27V.94ZM14.718 48.294h.075c.064.08.144.148.19.238.28.546.557 1.094.82 1.65.07.15.118.328.129.496.023.363.015.727.02 1.091 0 .023.003.046.005.071h1.622v-.154c-.001-.234-.007-.469-.003-.703.004-.237-.013-.483.093-.7.292-.594.586-1.187.89-1.773.13-.252.287-.244.425 0l.019.037c.205.404.417.804.614 1.214.111.232.229.47.29.722.098.405.056.827.05 1.243 0 .138-.009.133.117.142.118.007.239.013.35.05.172.056.259.212.259.41 0 .224.003.448-.003.672a.459.459 0 0 1-.046.187.414.414 0 0 1-.349.231c-.1.011-.202.016-.313.025v7.14c0 .028.002.056 0 .084-.003.06.02.08.072.08.075 0 .15.008.225.012a.45.45 0 0 1 .416.5 4.627 4.627 0 0 0 0 .587c.012.198-.126.39-.291.434-.1.027-.203.039-.306.045-.134.009-.134.004-.134.159-.001.48.002.959-.005 1.438-.004.282-.16.442-.413.445h-.112l-.371.024h-.582c-.032-.007-.065-.018-.098-.02-.134-.003-.269 0-.403-.006-.202-.009-.346-.151-.375-.366a1.674 1.674 0 0 1-.015-.22c-.001-.44-.003-.882.001-1.323.001-.094-.02-.126-.108-.125a72.71 72.71 0 0 1-1.417 0c-.087-.001-.11.029-.11.124.005.445.004.89.002 1.334-.002.42-.135.576-.506.58-.432.006-.863.003-1.295 0-.09 0-.18-.01-.27-.025-.154-.027-.257-.123-.282-.302-.014-.093-.029-.187-.03-.28-.004-.434-.004-.869-.005-1.303v-.13h-.108c-.466 0-.931.004-1.398-.003-.098-.001-.119.033-.117.136.004.462.004.925 0 1.387-.001.312-.144.509-.4.514-.522.01-1.044.01-1.567 0-.252-.006-.376-.146-.406-.413a2.666 2.666 0 0 1-.015-.283c-.002-.402 0-.805-.001-1.208 0-.04-.004-.08-.006-.13H9.43c-.463 0-.926.004-1.389-.003-.1-.001-.118.036-.117.138.004.462.006.924-.002 1.386-.006.365-.152.513-.48.518-.12.002-.24.015-.361.023h-.713c-.117-.008-.234-.026-.351-.022-.346.014-.477-.232-.473-.538.005-.463-.001-.925.003-1.387 0-.092-.023-.118-.105-.117-.47.004-.938.002-1.407.002-.124 0-.124 0-.124.136l-.004 1.408c-.002.31-.15.484-.424.494-.135.005-.269.002-.403.005-.043.001-.085.013-.127.02h-.45c-.033-.007-.066-.02-.098-.02-.156-.003-.313 0-.468-.006-.223-.009-.36-.149-.39-.394a1.83 1.83 0 0 1-.015-.22V62.6c0-.063-.003-.126-.003-.19 0-.06-.025-.084-.08-.084-.078 0-.156-.01-.233-.018-.238-.022-.365-.157-.402-.422-.003-.02-.012-.039-.02-.058v-.589c.007-.016.016-.03.018-.047.04-.278.168-.41.416-.433l.279-.027v-7.314c-.1 0-.197.005-.293 0-.231-.014-.365-.152-.398-.402-.004-.027-.014-.052-.021-.078v-.588c.006-.012.016-.023.017-.035.02-.281.186-.445.464-.447h.255V50.86c.002-.22.016-.44.116-.64l.84-1.672a.593.593 0 0 1 .079-.117c.127-.15.213-.145.33.017a.795.795 0 0 1 .062.104l.784 1.564c.11.221.162.461.165.713.004.304.005.608.003.912 0 .08.017.11.094.11.485-.004.969-.004 1.453 0 .072 0 .09-.027.09-.104-.003-.35 0-.7 0-1.05 0-.171.039-.33.114-.48.28-.558.556-1.118.84-1.672.05-.096.136-.168.204-.251h.057c.066.076.15.141.196.23.275.538.542 1.08.809 1.622.102.209.15.437.154.674.005.305.006.609.003.913 0 .09.017.12.103.12.475-.006.95-.003 1.426-.003.03 0 .06-.003.094-.005 0-.314-.003-.615.001-.916.004-.245.014-.49.125-.712.28-.555.555-1.112.837-1.664.155-.303.315-.302.47-.002.271.531.54 1.064.81 1.597.104.209.157.432.152.673-.005.178-.005.357-.006.535v.484h1.623c0-.31.002-.61-.001-.912a1.775 1.775 0 0 1 .196-.861c.259-.495.5-1.002.755-1.499.052-.101.137-.183.208-.274ZM5.52 60.734v-7.29c-.036-.001-.063-.004-.091-.004-.466 0-.932.003-1.398-.003-.09 0-.107.033-.107.126.002 2.353.001 4.707.001 7.06 0 .036.004.073.005.111h1.59Zm2.427-7.291c-.002.04-.006.07-.006.101 0 2.36 0 4.721-.002 7.082 0 .098.03.114.108.114.46-.004.92-.005 1.38 0 .093.001.113-.034.113-.131-.002-2.347-.002-4.693-.002-7.04 0-.04-.004-.082-.005-.126H7.947Zm8.026 7.295h1.475c.121 0 .122 0 .122-.138v-7.155h-1.598v7.293Zm-2.435-7.291h-1.58v7.282h1.58v-7.282Z" fill="#244F6E"/><path fill-rule="evenodd" clip-rule="evenodd" d="m51.002 47.222 11.86 17.607h189.753V47.222H51.002Zm84.141 13.784v-11.29h.793v11.29h-.793Zm-24.122-1.35c-2.523 0-4.396-1.822-4.396-4.295s1.873-4.294 4.408-4.294c1.225 0 2.33.41 3.074 1.23l-.564.567c-.685-.7-1.526-1.001-2.486-1.001-2.03 0-3.556 1.496-3.556 3.498 0 2.003 1.526 3.498 3.556 3.498.96 0 1.801-.301 2.486-1.013l.564.567c-.744.82-1.849 1.242-3.086 1.242ZM85.628 51.91h-4.876v3.317H85.1V56h-4.348v3.583h-.889v-8.444h5.765v.772Zm3.425 6.9h5.056v.772h-5.945v-8.444h5.765v.772h-4.876v3.004H93.4v.76h-4.347v3.136Zm14.872-7.672h-.877v6.852l-5.417-6.852H96.9v8.444h.888V52.73l5.405 6.852h.733v-8.444Zm18.722 7.672h-5.056v-3.136h4.348v-.76h-4.348V51.91h4.876v-.772h-5.765v8.444h5.945v-.772Zm25.34-7.672v8.444h3.423c2.69 0 4.503-1.737 4.503-4.222 0-2.485-1.813-4.222-4.503-4.222h-3.423Zm3.375 7.672h-2.487v-6.9h2.487c2.233 0 3.675 1.424 3.675 3.45 0 2.027-1.442 3.45-3.675 3.45Zm8.137 0h5.056v.772h-5.945v-8.444h5.765v.772h-4.876v3.004h4.347v.76h-4.347v3.136Zm7.054-3.45c0 2.473 1.874 4.294 4.396 4.294 1.237 0 2.342-.422 3.086-1.242l-.564-.567c-.685.712-1.525 1.013-2.486 1.013-2.03 0-3.555-1.495-3.555-3.498 0-2.002 1.525-3.498 3.555-3.498.961 0 1.801.301 2.486 1.001l.564-.567c-.744-.82-1.849-1.23-3.074-1.23-2.534 0-4.408 1.821-4.408 4.294Zm16.119 4.222-3.435-3.969-1.718 1.75v2.219h-.888v-8.444h.888v5.103l4.937-5.103h1.02l-3.639 3.824 3.892 4.62h-1.057Zm12.711-9.867v11.29h.793v-11.29h-.793Zm19.557 9.867h-.973l-1.922-2.714a5.955 5.955 0 0 1-.672.036h-2.258v2.678h-.889v-8.444h3.147c2.138 0 3.435 1.086 3.435 2.895 0 1.327-.697 2.256-1.922 2.654l2.054 2.895Zm-3.591-3.438c1.681 0 2.57-.784 2.57-2.11 0-1.352-.889-2.124-2.57-2.124h-2.234v4.234h2.234Zm11.53 1.182 1.008 2.256h.937l-3.843-8.444h-.877l-3.843 8.444h.925l1.009-2.256h4.684Zm-.325-.724h-4.035l2.018-4.535 2.017 4.535Zm4.362 2.98v-8.444h.888v8.444h-.888Zm4.324-8.444v8.444h5.597v-.772h-4.708v-7.672h-.889Z" fill="#244F6E"/></svg>