<svg width="124" height="124" fill="none" xmlns="http://www.w3.org/2000/svg"><path d="M89.11 110.75v1.3L86.281 114l1.061-2.99 1.768-.26Zm13.202-.65-2.593 1.04-2.593.26 3.653-.91 1.533-.39Zm1.414.39-2.239.52v-.26l8.015-3.25-5.776 2.99Zm14.027-11.44-5.894 5.46h2.711l2.122-2.99 2.122.13.118-.91 1.06 1.3 4.008-1.69-13.673 7.15 1.414-.91-17.09 4.81 2.12.52-5.421.78 2.71-1.3-1.178-.91-1.179.52.354.91-2.004.52-.59-1.69 1.887-2.99 2.71-.26v-1.04l.354.39.236-1.69 1.061 1.43.472-1.82 2.121.13.59-1.3 1.178 1.17-.59-1.17 2.948.91 1.65-1.3 7.779-.52 4.362-3.9 1.532.26Zm3.772-2.99-.354-.26 1.415-.65-.826.91h-.235ZM14.616 53.55l-.943 1.3-.707-.65.118-1.43 1.532.78Zm41.49-20.67-.825.78 1.061-1.69v.78l-.236.13Zm2.358-6.89.354.26-1.415.39.236-.39.825-.26Zm2.475-1.43-.707.65-.943 1.04-.236-1.04 1.886-.65ZM77.088 10h22.395v1.3l-.118 7.8 1.179 3.9-.59 4.81-1.65 4.16 1.179 6.37-.825 4.03.236.91 1.65-1.17.589 1.69.354 18.46-3.654 15.21-.707 18.59 1.178 1.56-3.89 2.73 1.297 2.34L93 105.55l.236 1.04-1.886.26-1.297 2.34 2.004-7.15-.943-6.76-.825 1.17 1.179 6.24-12.495-8.32-.707-1.56-3.89-1.69-1.06-2.47-.118-4.94-2.83-1.3-1.296-2.86L0 76.56l.354-6.11 9.9-6.5 1.887-3.12 2.475-1.43-.59-4.55.826-1.69-2.711-1.3.118-4.16 10.844-2.08 9.547 1.56 2.476 2.34 3.418-.91 6.011 1.43.472-1.3 3.418-.65 4.479-4.29 2.357.26 1.297-1.56.118-1.69-.354.39-1.178-4.81.942-1.17.236 1.17 2.476-3.51-2.24.52 1.296-1.69-1.296-.65-1.415 1.04-.825-2.21L62 24.3l2.357-4.81 6.719-6.24L77.088 10Z" fill="#364D68"/></svg>