<svg width="36" height="36" fill="none" xmlns="http://www.w3.org/2000/svg"><path d="M14.757 8.49a.647.647 0 0 0-.915.031l-.937 1.004a.647.647 0 0 0-.049.824l1.457 1.992-2.102-1.307a.647.647 0 0 0-.814.108l-2.033 2.177a.647.647 0 0 0-.1.742l.188.358-.392-.16a.647.647 0 0 0-.719.157l-.638.683a.647.647 0 0 0 .032.915l5.31 4.955 7.021-7.524-5.31-4.955Zm-.724 13.402 1.537 1.434a.647.647 0 0 0 .915-.031l1.36-1.458a1.255 1.255 0 0 1 1.016-.397c.383.029.728.227.945.544 2.783 4.05 3.183 4.423 3.314 4.546a2.339 2.339 0 0 0 3.302-.114 2.34 2.34 0 0 0-.114-3.302c-.131-.123-.53-.496-4.763-2.993a1.255 1.255 0 0 1-.607-.905c-.055-.381.063-.76.325-1.04l1.36-1.459a.647.647 0 0 0-.031-.914l-1.537-1.435-7.022 7.524Zm11.264 2.223a.914.914 0 1 1-1.248 1.337.914.914 0 0 1 1.248-1.337Z" fill="#6F9D80"/><path fill="#6F9D80" stroke="#EEF1F7" stroke-width="1.11" d="m26.814 6.13 2.052 2.052L7.31 29.738l-2.052-2.052z"/><circle cx="18" cy="18" r="14.875" stroke="#6F9D80" stroke-width="1.75"/></svg>