<svg width="20" height="20" fill="none" xmlns="http://www.w3.org/2000/svg"><g clip-path="url(#a)" fill="#327BBC"><path d="M.324 19.938a.586.586 0 0 0 .786-.262l1.82-3.64 1.82 3.64a.586.586 0 0 0 1.048-.524l-1.92-3.84h1.396a.586.586 0 0 0 .586-.586A5.273 5.273 0 0 0 .586 9.453.586.586 0 0 0 0 10.04v4.687c0 .324.263.586.586.586h1.396l-1.92 3.84a.586.586 0 0 0 .262.786Zm.948-16.122a.587.587 0 0 0 .226.85 5.853 5.853 0 0 0 4.397.33 3.354 3.354 0 0 1-.026-.651C5.985 2.648 7.329 1.005 8.376 0h-.049c-2.842 0-5.48 1.451-7.055 3.816ZM9.991.166c-.82.675-2.834 2.51-2.953 4.26a2.15 2.15 0 0 0 .033.54l1.049.35c.407.135.869.207 1.295.25v6.23H6.32c.367.715.606 1.506.682 2.344h2.413v4.687H7.618a.586.586 0 1 0 0 1.172h4.765a.586.586 0 1 0 0-1.172h-1.796V14.14h2.412a6.392 6.392 0 0 1 .682-2.344h-3.095v-6.23c.426-.043.888-.115 1.296-.25l1.058-.353C13.222 3.15 10.885.935 9.99.166Zm8.512 4.499a.585.585 0 0 0 .226-.85C17.153 1.452 14.514 0 11.673 0h-.085c1.17 1.148 2.737 3.108 2.529 5a5.863 5.863 0 0 0 4.386-.335Zm.911 4.788a5.273 5.273 0 0 0-5.273 5.273c0 .324.262.586.586.586h1.395l-1.92 3.84a.586.586 0 1 0 1.049.524l1.82-3.64 1.82 3.64a.586.586 0 0 0 1.047-.524l-1.92-3.84h1.396a.586.586 0 0 0 .586-.586V10.04a.586.586 0 0 0-.586-.586Z"/></g><defs><clipPath id="a"><path fill="#fff" d="M0 0h20v20H0z"/></clipPath></defs></svg>