<svg width="26" height="26" fill="none" xmlns="http://www.w3.org/2000/svg"><path fill-rule="evenodd" clip-rule="evenodd" d="M4.75 4.756v-.923H2v10.093h22V3.833h-2.75v.923h-4.583v-.92h-.917v8.083h-5.5V3.832h-.917v.923H4.75Zm16.5.665v6.497h-1.833V5.417l1.833.005Zm-2.759 6.497h-1.824V5.421h1.824v6.497Zm-9.158 0H7.5V5.667h1.833v6.252Zm-2.75 0H4.75V5.666h1.822l.011 6.252Zm.925 2.008H4.75v8.24h2.758v-8.24Zm13.742 0h-2.759v8.24h2.759v-8.24Z" fill="#327BBC"/><path d="M9.333 19.416v-1.833h7.334v1.833H9.333Zm.917-4.583h5.5v1.833h-5.5v-1.833Zm-1.833 7.333v-1.833h9.166v1.833H8.417Z" fill="#327BBC"/></svg>