<svg width="28" height="28" fill="none" xmlns="http://www.w3.org/2000/svg"><g clip-path="url(#a)" fill="#327BBC"><path d="m8.26 17.477.953-2.693a.27.27 0 0 0-.023-.235.276.276 0 0 0-.259-.118l-2.846.294c-.035 0-.07 0-.105-.011a.19.19 0 0 1-.083-.048l-2.27-1.74a.261.261 0 0 0-.258-.035.301.301 0 0 0-.176.2l-.6 2.787a.559.559 0 0 1-.035.082.274.274 0 0 1-.083.082L.124 17.665a.263.263 0 0 0-.118.259.289.289 0 0 0 .13.2l2.469 1.434a.507.507 0 0 1 .082.07c.024.024.035.06.047.095l.812 2.74a.244.244 0 0 0 .176.176c.094.035.188.012.27-.059l2.129-1.905a.359.359 0 0 1 .082-.059c.035-.011.07-.023.106-.011l2.857.07a.323.323 0 0 0 .247-.129.233.233 0 0 0 .012-.247l-1.164-2.61c-.012-.036-.024-.06-.024-.095 0-.047.012-.082.024-.117Zm17.004 2.163 2.575-1.234a.274.274 0 0 0 .153-.188.274.274 0 0 0-.094-.27l-2.223-1.8a.22.22 0 0 1-.094-.176l-.376-2.834a.265.265 0 0 0-.153-.212.257.257 0 0 0-.259.024l-2.398 1.552c-.024.012-.06.024-.083.035a.2.2 0 0 1-.117 0l-2.81-.517a.265.265 0 0 0-.271.106.274.274 0 0 0-.047.235l.74 2.763c.012.036.012.07.012.106 0 .035-.011.07-.035.094l-1.364 2.517a.234.234 0 0 0 0 .247c.047.082.13.14.235.152l2.858.153a.22.22 0 0 1 .094.024.206.206 0 0 1 .082.059l1.964 2.07c.07.082.176.093.27.07a.29.29 0 0 0 .188-.165l1.023-2.67c.012-.034.036-.058.047-.081.012-.024.047-.047.083-.06Zm-7.537-6.772 2.316-2.787c.07-.094.094-.2.07-.294a.345.345 0 0 0-.246-.259l-3.516-.893a.434.434 0 0 1-.13-.06c-.035-.023-.058-.058-.082-.082l-1.928-3.057a.35.35 0 0 0-.294-.165.35.35 0 0 0-.294.165l-1.929 3.057a.274.274 0 0 1-.082.083.435.435 0 0 1-.13.059l-3.504.893a.344.344 0 0 0-.176.553l2.316 2.787c.024.035.048.07.06.117a.234.234 0 0 1 .011.13l-.235 3.61a.347.347 0 0 0 .13.294c.093.07.223.105.34.058l3.363-1.34a.422.422 0 0 1 .13-.024c.047 0 .082.012.129.024l3.363 1.34c.13.047.259.024.341-.058a.347.347 0 0 0 .13-.294l-.236-3.61c0-.047 0-.083.012-.13a1.04 1.04 0 0 1 .07-.117Z"/></g><defs><clipPath id="a"><path fill="#fff" d="M0 0h28v28H0z"/></clipPath></defs></svg>