<svg width="36" height="36" viewBox="0 0 36 36" fill="none" xmlns="http://www.w3.org/2000/svg">
<path d="M17.626 9.79053L14.2492 11.2363L15.0985 12.1706L17.6878 9.817L17.626 9.79053Z" fill="#6F9D80"/>
<path d="M12.4476 20.6583L22.2334 11.7632L18.9277 10.3479L11.5031 17.0966C11.5311 18.2886 11.829 19.4595 12.3754 20.5213C12.399 20.5672 12.4231 20.6129 12.4476 20.6583Z" fill="#6F9D80"/>
<path d="M23.472 12.2935L23.751 12.413V16.4601L21.1493 18.8249L18.9492 16.4046L23.472 12.2935Z" fill="#6F9D80"/>
<path d="M15.5807 23.8861L14.7989 23.3276C14.16 22.8701 13.5953 22.3214 13.1215 21.7013L18.0405 17.2301L20.2405 19.6504L15.5807 23.8861Z" fill="#6F9D80"/>
<path d="M19.5988 23.9378L17.626 25.3469L16.6014 24.6151L18.5799 22.8169L19.5988 23.9378Z" fill="#6F9D80"/>
<path d="M22.8766 20.5213C23.2505 19.7946 23.5081 19.0167 23.6424 18.216L19.4883 21.992L20.6026 23.2179C21.5538 22.5023 22.3314 21.5806 22.8766 20.5213Z" fill="#6F9D80"/>
<path d="M11.501 15.4373L14.1901 12.993L13.0572 11.7467L11.501 12.413V15.4373Z" fill="#6F9D80"/>
<path fill-rule="evenodd" clip-rule="evenodd" d="M17.9706 2.32071L30.2214 7.57086C30.3789 7.63831 30.5131 7.75048 30.6074 7.89344C30.7016 8.03641 30.7518 8.20388 30.7516 8.37508V16.9208C30.7496 19.2875 30.1835 21.6197 29.1003 23.7245C28.017 25.8294 26.4477 27.6463 24.5221 29.0251L18.1342 33.5873C17.9859 33.6931 17.8081 33.75 17.6258 33.75C17.4435 33.75 17.2658 33.6931 17.1174 33.5873L10.7295 29.0251C8.80399 27.6463 7.23471 25.8293 6.15147 23.7245C5.06822 21.6197 4.50213 19.2875 4.5 16.9208V8.37508C4.49985 8.20388 4.55002 8.03641 4.64429 7.89344C4.73856 7.75048 4.87277 7.63831 5.03028 7.57086L17.2811 2.32071C17.39 2.27406 17.5073 2.25 17.6258 2.25C17.7444 2.25 17.8617 2.27406 17.9706 2.32071ZM24.4327 21.3231C25.1336 19.9612 25.4999 18.4521 25.5013 16.9208V11.8376C25.5015 11.6664 25.4513 11.4989 25.357 11.356C25.2628 11.213 25.1285 11.1008 24.971 11.0334L17.9706 8.03328C17.8618 7.98613 17.7444 7.96179 17.6258 7.96179C17.5072 7.96179 17.3899 7.98613 17.2811 8.03328L10.2806 11.0334C10.1231 11.1008 9.98889 11.213 9.89462 11.356C9.80035 11.4989 9.75018 11.6664 9.75033 11.8376V16.9208C9.75177 18.4521 10.118 19.9612 10.8189 21.3231C11.5198 22.6851 12.535 23.8608 13.7808 24.7532L17.1174 27.1361C17.2658 27.2419 17.4435 27.2988 17.6258 27.2988C17.8081 27.2988 17.9859 27.2419 18.1342 27.1361L21.4708 24.7532C22.7166 23.8608 23.7319 22.6851 24.4327 21.3231Z" fill="#6F9D80"/>
</svg>
