<svg width="120" height="116" fill="none" xmlns="http://www.w3.org/2000/svg"><path d="M67.707 11.256H52.292c-22.616 0-40.95 18.127-40.95 40.487v15.24c0 22.361 18.334 40.488 40.95 40.488h15.415c22.617 0 40.951-18.127 40.951-40.487v-15.24c0-22.361-18.334-40.488-40.95-40.488Z" fill="url(#a)"/><path d="M113.843 70.159C114.783 66.085 120 62.368 120 58s-5.232-8.07-6.157-12.158c-.971-4.213 2.084-9.79.235-13.6-1.88-3.856-8.224-4.971-10.903-8.286-2.695-3.33-2.381-9.68-5.765-12.344-3.353-2.649-9.556-.945-13.457-2.82-3.838-1.827-6.345-7.697-10.606-8.657-4.12-.93-8.945 3.252-13.347 3.252-4.402 0-9.227-4.182-13.347-3.252-4.261.96-6.768 6.815-10.606 8.658-3.9 1.859-10.104.17-13.457 2.819-3.368 2.664-3.07 9.014-5.765 12.344-2.679 3.315-9.023 4.43-10.903 8.287-1.849 3.794 1.206 9.386.235 13.599C5.217 49.915 0 53.632 0 58c0 4.368 5.232 8.07 6.157 12.159.97 4.213-2.084 9.789-.235 13.599 1.88 3.857 8.224 4.972 10.903 8.286 2.695 3.33 2.381 9.681 5.765 12.345 3.353 2.648 9.556.944 13.457 2.819 3.838 1.827 6.345 7.697 10.606 8.658 4.12.929 8.945-3.268 13.347-3.268 4.402 0 9.227 4.182 13.347 3.268 4.261-.961 6.768-6.815 10.606-8.658 3.9-1.859 10.104-.171 13.457-2.819 3.368-2.664 3.07-9.015 5.765-12.345 2.679-3.314 9.023-4.43 10.903-8.286 1.849-3.795-1.206-9.386-.235-13.6ZM60 11.256c20.005 0 37.08 12.282 44.005 29.63H16.01c6.91-17.348 24-29.63 44.006-29.63H60Zm0 93.504c-19.457 0-36.157-11.616-43.41-28.22h86.836c-7.254 16.604-23.97 28.22-43.41 28.22H60Z" fill="#181818"/><path d="m35.593 83.943 1.723 1.363-3.274 4.012 2.836 2.261-1.19 1.053-4.356-3.469 4.261-5.22Zm7.817 5.39-3.321 5.84-1.927-1.07 3.321-5.838 1.927 1.068Zm2.006 1.069 5.561 1.967-.532 1.456-3.494-1.239-.407 1.13 3.274 1.163-.532 1.456-3.275-1.162-.814 2.261-2.053-.728 2.288-6.304h-.016Zm12.375 7.017-3.587-.45-.141 1.116 4.01.51-.454 1.503-5.922-.743.862-6.645 5.937.744-.203 1.533-3.792-.48-.125.929 3.588.45-.204 1.533h.031Zm4.434-2.572L60 95.033l-.14-1.533 6.626-.573.141 1.533-2.209.186.454 5.127-2.193.186-.454-5.127v.015Zm7.99-2.927 1.738 6.459-2.13.557-1.739-6.459 2.13-.557Zm9.87.62c-.486-.945-1.066-2.107-1.38-2.82h-.015c.298 1.317.72 3.052 1.207 5.453l-1.614.805c-1.488-1.719-2.726-3.175-3.65-4.228.391.681 1.065 1.796 1.582 2.819l1.003 1.951-1.755.883-3.07-5.963 2.804-1.41c1.08 1.147 2.224 2.417 2.914 3.346-.314-1.177-.643-2.772-.94-4.337l2.804-1.41 3.07 5.964-1.91.96L80.1 92.54h-.015Zm8.505-6.97-2.71 2.37.752.836 3.04-2.648.846 1.332-4.465 3.903-4.496-5.019 4.48-3.918 1.034 1.161-2.851 2.494.627.697 2.71-2.37 1.034 1.162ZM29.092 30.12l1.645-1.533 3.666 3.841 2.71-2.54.908 1.332-4.167 3.888-4.778-5.003.016.015Zm8.694-6.954 3.823 5.746-1.896 1.224-3.822-5.746 1.895-1.224Zm3.321-1.921 5.593-2.323.627 1.471-3.525 1.456.486 1.146 3.29-1.363.626 1.472-3.29 1.363.971 2.277-2.067.852-2.695-6.35h-.016Zm15.556-.124-3.665.604.188 1.13 4.104-.68v1.61l-6.031.991-1.144-6.784 6.063-.991.266 1.564-3.854.635.157.945 3.666-.604.266 1.564-.016.016Zm4.919-2.571-2.287-.155.11-1.58 6.83.434-.11 1.58-2.271-.14-.345 5.282-2.256-.14.345-5.28h-.016Zm9.948-.046-1.708 6.66-2.193-.558 1.707-6.66 2.194.558Zm7.584 8.085c.5-.976 1.127-2.138 1.55-2.835h-.015c-.909 1.022-2.13 2.4-3.87 4.244l-1.644-.836c.563-2.262 1.033-4.151 1.378-5.545a62.698 62.698 0 0 1-1.425 2.99l-1.034 1.997-1.802-.914 3.18-6.118 2.883 1.456c-.314 1.58-.705 3.284-1.066 4.399.8-.96 1.943-2.184 3.087-3.377l2.866 1.456-3.18 6.118-1.958-.99 1.065-2.06-.015.015Zm9.037 6.629-2.726-2.509-.783.836 3.039 2.804-1.285.991-4.48-4.135 4.747-5.034 4.496 4.135-1.097 1.162-2.867-2.633-.658.697 2.726 2.51-1.096 1.16-.016.016Zm-2.929 6.661a31.313 31.313 0 0 0-25.332-12.81c-10.433 0-19.645 5.065-25.331 12.81h50.663ZM35.64 77.563c5.734 6.954 14.46 11.384 24.251 11.384a31.397 31.397 0 0 0 24.25-11.385h-48.5Z" fill="#181818"/><path d="m52.575 31.762.564 1.146a.44.44 0 0 0 .313.232l1.27.186a.416.416 0 0 1 .234.712l-.924.883a.454.454 0 0 0-.125.372l.219 1.255c.063.34-.298.588-.611.433l-1.144-.588a.436.436 0 0 0-.391 0l-1.144.588c-.313.155-.673-.093-.61-.433l.218-1.255c.016-.14-.015-.279-.125-.372l-.924-.883c-.25-.232-.11-.65.235-.712l1.269-.186a.404.404 0 0 0 .313-.232l.564-1.146a.42.42 0 0 1 .752 0h.047Zm7.912-1.533.736 1.471a.57.57 0 0 0 .407.294l1.645.233c.439.062.627.604.298.914l-1.19 1.146a.537.537 0 0 0-.157.48l.282 1.626a.534.534 0 0 1-.784.558l-1.472-.76a.57.57 0 0 0-.501 0l-1.473.76c-.392.201-.862-.124-.783-.558l.282-1.626a.551.551 0 0 0-.157-.48l-1.19-1.146a.537.537 0 0 1 .297-.914l1.645-.232a.57.57 0 0 0 .407-.295l.737-1.471a.541.541 0 0 1 .97 0Zm7.676 1.533.564 1.146a.44.44 0 0 0 .313.232l1.27.186a.416.416 0 0 1 .234.712l-.924.883a.454.454 0 0 0-.126.372l.22 1.255c.063.34-.298.588-.611.433l-1.144-.588a.436.436 0 0 0-.391 0l-1.144.588c-.313.155-.674-.093-.61-.433l.218-1.255c.016-.14-.015-.279-.125-.372l-.924-.883c-.25-.232-.11-.65.235-.712l1.269-.186a.404.404 0 0 0 .313-.232l.564-1.146a.42.42 0 0 1 .752 0h.047ZM52.731 79.994l.564 1.115a.387.387 0 0 0 .313.217l1.254.186c.328.046.47.465.234.697l-.908.867a.439.439 0 0 0-.125.357l.219 1.223c.063.325-.298.589-.595.434l-1.113-.589a.403.403 0 0 0-.376 0l-1.112.589c-.298.155-.658-.093-.595-.434l.22-1.223a.394.394 0 0 0-.126-.357l-.909-.867c-.25-.232-.11-.65.235-.697l1.253-.186a.422.422 0 0 0 .314-.217l.564-1.115a.417.417 0 0 1 .736 0h-.047Zm7.739.062.72 1.44a.49.49 0 0 0 .391.28l1.614.232a.526.526 0 0 1 .298.898l-1.175 1.13a.521.521 0 0 0-.157.465l.282 1.596a.528.528 0 0 1-.768.557l-1.44-.743a.536.536 0 0 0-.486 0l-1.442.743a.528.528 0 0 1-.767-.557l.282-1.596a.521.521 0 0 0-.157-.464l-1.175-1.131a.526.526 0 0 1 .298-.898l1.613-.233a.535.535 0 0 0 .392-.279l.72-1.44c.189-.387.752-.387.956 0Zm7.534-.062.564 1.115a.387.387 0 0 0 .314.217l1.253.186c.329.046.47.465.235.697l-.909.867a.439.439 0 0 0-.125.357l.22 1.223c.062.325-.298.589-.596.434l-1.112-.589a.403.403 0 0 0-.376 0l-1.112.589c-.298.155-.659-.093-.596-.434l.22-1.223a.394.394 0 0 0-.126-.357l-.908-.867c-.251-.232-.11-.65.235-.697l1.253-.186a.422.422 0 0 0 .313-.217l.564-1.115a.417.417 0 0 1 .736 0h-.047Z" fill="#EACC7F"/><path d="m12.438 70.299-3.07-21.994h3.18c.579 5.002 1.456 13.119 1.629 16.975h.062c.423-4.182 1.598-12.004 2.287-16.975h2.946c.705 5.095 1.864 12.375 2.24 16.851h.078c.25-4.073 1.128-11.694 1.723-16.851h3.024l-3.321 21.994h-3.102c-.674-5.019-1.755-12.082-2.193-16.233h-.063c-.486 4.337-1.614 11.338-2.334 16.233h-3.086Zm17.891-6.366-.893 6.366h-3.024l3.619-21.994h4.23l3.76 21.994h-3.118l-.987-6.366h-3.587Zm3.195-2.71c-.626-4.198-1.143-7.823-1.378-10.146h-.11c-.094 1.766-.815 6.567-1.316 10.145h2.804Zm9.196-.946V70.3h-2.976V48.305h4.387c3.368 0 5.216 1.378 5.216 5.204v.914c0 3.221-1.253 4.228-2.271 4.6 1.347.573 2.052 1.549 2.052 4.507 0 1.859-.031 5.406.204 6.769h-2.883c-.297-1.348-.235-4.988-.235-6.568 0-2.757-.376-3.454-2.46-3.454h-1.033Zm0-2.462h1.066c1.942 0 2.553-.899 2.553-3.268v-.852c0-1.828-.438-2.928-2.506-2.928h-1.128v7.063l.016-.015Zm12.25 2.462V70.3h-2.976V48.305h4.387c3.368 0 5.216 1.378 5.216 5.204v.914c0 3.221-1.253 4.228-2.271 4.6 1.347.573 2.052 1.549 2.052 4.507 0 1.859-.031 5.406.204 6.769h-2.883c-.298-1.348-.235-4.988-.235-6.568 0-2.757-.376-3.454-2.46-3.454h-1.049.016Zm0-2.462h1.066c1.942 0 2.553-.899 2.553-3.268v-.852c0-1.828-.438-2.928-2.506-2.928h-1.128v7.063l.016-.015Zm12.11 6.118-.892 6.366h-3.024l3.619-21.994h4.23l3.76 21.994h-3.118l-.987-6.366h-3.587Zm3.196-2.71c-.626-4.198-1.143-7.823-1.378-10.146h-.11c-.094 1.766-.814 6.567-1.316 10.145h2.804Zm6.202 9.076V48.305h3.494c1.018 3.516 3.854 14.652 4.151 16.077h.047c-.14-2.819-.172-5.901-.172-9.51v-6.567h2.773v21.994h-3.368c-.909-3.253-3.964-15.334-4.261-16.604h-.032c.157 2.648.173 5.854.173 9.82v6.784h-2.805ZM91.99 51.03h-3.588v-2.74h10.152v2.74h-3.588v19.253H91.99V51.03Zm11.794 19.269v-7.962c0-.263-.031-.418-.109-.681l-4.12-13.351h3.289c.987 3.748 2.131 8.116 2.491 10.346h.032c.438-2.4 1.598-6.722 2.506-10.346h3.165l-4.199 13.568a3.576 3.576 0 0 0-.062.759v7.651H103.8l-.016.016Z" fill="#fff"/><defs><linearGradient id="a" x1="11.342" y1="59.364" x2="108.658" y2="59.364" gradientUnits="userSpaceOnUse"><stop stop-color="#E4D48D"/><stop offset=".23" stop-color="#916C2C"/><stop offset=".4" stop-color="#EACC7F"/><stop offset=".61" stop-color="#916C2C"/><stop offset=".83" stop-color="#EACC7F"/><stop offset="1" stop-color="#916C2C"/></linearGradient></defs></svg>