<svg width="124" height="124" fill="none" xmlns="http://www.w3.org/2000/svg"><path d="m116 40.033-3.151 3.892-1.89 5.648.882 3.138L116 40.033ZM43.664 10.536l1.89-2.636-1.386 1.255-.504 1.38Zm2.898-4.143-.63-.753-1.386.879 2.017-.126Zm-27.472 7.03-2.899 3.263 1.387 15.063-8.066 7.28L8 46.06l4.41 4.016-1.26 17.322 4.663 3.515 3.025.251 9.577 5.774 6.05 6.276 7.687 3.892 1.764 9.665v.627l3.655 4.394-1.008 3.389 1.26 7.406 3.78 5.146 6.931 3.64-.126.628 27.473-3.138 10.208-1.255 17.012-2.385-.504-1.883v-5.9l-3.402-6.276-.882-7.908 1.638-8.786-.882-6.779 3.024-8.41-1.134-1.38.252-7.783 1.638-5.9-1.89-2.008-3.654 1.255-2.017 5.272-4.789 2.762 1.513-6.653 4.284-5.648.252-2.51.126-.126-6.049-6.026V32l-6.805-5.523-9.325-.628-9.578-2.51-20.667-6.276-4.033-2.26-.378.377-6.427-.879-2.142 1.255.882-9.163-10.334 5.272-12.602 2.009-.126-.251Zm24.7-6.653-.252-.879-.882.377 1.134.502Zm-4.537-.879.378-.753-.252-.251-.126 1.004Zm9.2-2.134L48.075 2l-.378 2.134.756-.377Z" fill="#364D68"/></svg>